# Blender v2.79 (sub 0) OBJ File: ''
# www.blender.org
mtllib StormtrooperHelm.mtl
o imp_inf_stormtrooper
v 0.122425 0.096565 0.009766
v 0.117227 0.096420 0.007585
v 0.097739 0.094513 -0.071315
v 0.090382 0.094919 -0.065448
v 0.063432 0.093267 -0.106296
v 0.024753 0.093869 -0.118426
v 0.000000 0.092791 -0.132442
v 0.000000 0.093234 -0.123769
v -0.024754 0.093869 -0.118426
v -0.117228 0.096410 0.007583
v -0.120145 0.064364 -0.002437
v -0.122425 0.096562 0.009766
v -0.131817 0.076062 0.013906
v -0.125738 0.099447 0.068575
v -0.136739 0.081857 0.068067
v -0.123591 0.090367 0.081449
v -0.122819 0.073524 0.093825
v -0.099984 0.065517 0.133648
v -0.124549 0.049764 0.094240
v -0.123682 0.027519 0.088191
v -0.133472 0.011487 0.067036
v -0.116466 0.015562 0.135522
v -0.152621 -0.003507 0.069640
v -0.126374 -0.002647 0.159642
v -0.156714 -0.046758 0.079723
v -0.114646 -0.048969 0.154896
v 0.120144 0.064364 -0.002436
v 0.131817 0.076034 0.013900
v 0.119941 0.037746 -0.000801
v 0.131704 0.033610 0.022522
v 0.122186 0.006072 0.028107
v 0.136393 0.040056 0.069104
v 0.133472 0.011320 0.067001
v 0.123530 0.027704 0.088447
v 0.095822 0.017543 0.135936
v 0.099984 0.065778 0.133702
v 0.000000 0.012529 0.184629
v 0.095412 0.101605 0.132686
v 0.000000 0.103582 0.179250
v 0.089889 0.146412 0.126045
v 0.000000 0.147524 0.170841
v 0.000000 0.194175 0.150594
v -0.089889 0.146253 0.126012
v -0.070018 0.193971 0.112767
v -0.099133 0.193484 0.063342
v -0.042692 0.214512 0.062931
v -0.042692 0.214227 -0.003804
v 0.000000 0.222603 -0.004028
v -0.066564 0.192971 -0.070598
v 0.000000 0.192442 -0.097931
v -0.068514 0.141639 -0.096401
v 0.000000 0.141225 -0.119169
v -0.063432 0.093267 -0.106296
v 0.000000 0.222873 0.062737
v -0.090383 0.094919 -0.065448
v -0.097740 0.094513 -0.071315
v -0.121898 0.143338 -0.002953
v -0.099133 0.193198 -0.003384
v -0.122186 0.006223 0.029915
v -0.135582 0.040210 0.069137
v -0.131705 0.033683 0.022537
v -0.150856 -0.009160 0.024504
v 0.150855 -0.009347 0.024465
v 0.162297 -0.004072 0.069522
v 0.105730 -0.000238 0.160145
v 0.000000 -0.006063 0.214895
v 0.000000 -0.057354 0.209558
v 0.114646 -0.048969 0.154896
v 0.156713 -0.046758 0.079723
v 0.152343 -0.052938 0.024759
v -0.152344 -0.052938 0.024759
v -0.133019 -0.069183 0.019572
v -0.119878 -0.108704 -0.063559
v 0.000000 -0.082326 -0.018922
v 0.000000 -0.089269 -0.035390
v 0.133018 -0.069183 0.019572
v 0.119877 -0.108704 -0.063559
v 0.135845 -0.078310 -0.072089
v 0.093537 -0.100016 -0.126679
v 0.127382 -0.041497 -0.074949
v 0.070293 -0.083555 -0.138896
v 0.111877 -0.032634 -0.087198
v 0.036278 -0.072534 -0.145739
v 0.027426 0.000533 -0.139433
v 0.000000 0.002791 -0.146097
v 0.000000 0.015134 -0.143175
v -0.026971 0.013042 -0.136443
v -0.026182 0.076365 -0.114286
v -0.095231 -0.032634 -0.087198
v -0.093753 0.047343 -0.072786
v -0.110386 -0.003641 -0.019132
v -0.119941 0.037753 -0.000799
v 0.000000 0.076198 -0.123938
v 0.026971 0.013042 -0.136443
v 0.026182 0.076365 -0.114286
v 0.093752 0.047343 -0.072786
v 0.110385 -0.003637 -0.019131
v 0.000000 -0.077430 0.089292
v 0.071662 -0.138167 -0.113211
v 0.035122 -0.103578 -0.129464
v 0.030574 -0.138447 -0.113208
v 0.000000 -0.089610 -0.135084
v 0.000000 -0.127440 -0.121390
v -0.035122 -0.103578 -0.129464
v -0.030575 -0.138447 -0.113208
v -0.093537 -0.100016 -0.126679
v -0.071663 -0.138167 -0.113211
v -0.135845 -0.078310 -0.072089
v 0.136738 0.081775 0.068050
v 0.123783 0.073606 0.093502
v 0.124369 0.049837 0.094486
v -0.095412 0.101349 0.132633
v -0.121907 0.144743 0.064572
v 0.123733 0.090548 0.081478
v 0.125738 0.099449 0.068576
v 0.121906 0.144761 0.064576
v 0.099132 0.193484 0.063342
v 0.073505 0.193948 0.109798
v 0.042692 0.214512 0.062931
v 0.121897 0.143338 -0.002953
v 0.099132 0.193198 -0.003384
v 0.042692 0.214227 -0.003804
v 0.068513 0.141639 -0.096401
v 0.066563 0.192971 -0.070598
v -0.127382 -0.041497 -0.074949
v -0.070294 -0.083555 -0.138896
v -0.036278 -0.072534 -0.145739
v 0.000000 -0.064280 -0.151975
v -0.027427 0.000533 -0.139433
v 0.000000 -0.081406 -0.055319
vt 0.703390 0.289710
vt 0.696080 0.288130
vt 0.617030 0.289570
vt 0.618720 0.288000
vt 0.579710 0.287760
vt 0.542840 0.286500
vt 0.502700 0.289210
vt 0.502700 0.287970
vt 0.542840 0.286500
vt 0.696080 0.288130
vt 0.685590 0.259280
vt 0.703390 0.289710
vt 0.701390 0.268300
vt 0.762670 0.289830
vt 0.762720 0.269840
vt 0.775580 0.282450
vt 0.789990 0.256570
vt 0.880300 0.247480
vt 0.789470 0.230340
vt 0.787310 0.203880
vt 0.758030 0.182680
vt 0.875880 0.157820
vt 0.769040 0.162900
vt 0.879360 0.137780
vt 0.801220 0.118960
vt 0.871590 0.093430
vt 0.685590 0.259280
vt 0.701390 0.268300
vt 0.684510 0.223380
vt 0.708900 0.213690
vt 0.715250 0.178550
vt 0.761050 0.215620
vt 0.758030 0.182680
vt 0.787860 0.204170
vt 0.875880 0.157820
vt 0.880300 0.247480
vt 0.971060 0.140500
vt 0.874860 0.287270
vt 0.971060 0.282680
vt 0.873390 0.345450
vt 0.971060 0.345640
vt 0.972760 0.388420
vt 0.873390 0.345450
vt 0.841550 0.385120
vt 0.762130 0.380370
vt 0.780710 0.435970
vt 0.664960 0.435970
vt 0.656410 0.477310
vt 0.589560 0.386380
vt 0.501650 0.389280
vt 0.579150 0.346010
vt 0.502690 0.346530
vt 0.579710 0.287760
vt 0.811650 0.477310
vt 0.618720 0.288000
vt 0.617030 0.289570
vt 0.690070 0.345620
vt 0.670330 0.380130
vt 0.715250 0.178550
vt 0.761050 0.215620
vt 0.708900 0.213690
vt 0.722260 0.150500
vt 0.722260 0.150500
vt 0.769040 0.162900
vt 0.879360 0.137780
vt 0.971060 0.118300
vt 0.968670 0.062640
vt 0.871590 0.093430
vt 0.801220 0.118960
vt 0.733440 0.103510
vt 0.733440 0.103510
vt 0.751340 0.077310
vt 0.652120 0.045600
vt 0.738570 0.019030
vt 0.700320 0.019030
vt 0.751340 0.077480
vt 0.652120 0.045860
vt 0.644120 0.064710
vt 0.613160 0.058660
vt 0.637350 0.104640
vt 0.585370 0.076000
vt 0.622530 0.121040
vt 0.533720 0.097890
vt 0.532960 0.162750
vt 0.502710 0.168220
vt 0.502710 0.185390
vt 0.534190 0.180090
vt 0.543350 0.265870
vt 0.622530 0.121040
vt 0.624350 0.227360
vt 0.684370 0.173220
vt 0.684510 0.223380
vt 0.502700 0.265950
vt 0.534190 0.180090
vt 0.543350 0.265870
vt 0.624350 0.227360
vt 0.684370 0.173220
vt 0.927370 0.026470
vt 0.603550 0.002400
vt 0.544950 0.036930
vt 0.546330 0.001430
vt 0.502730 0.053600
vt 0.502810 0.003090
vt 0.544950 0.036930
vt 0.546330 0.001430
vt 0.613160 0.058660
vt 0.603550 0.002400
vt 0.644120 0.064710
vt 0.762720 0.269840
vt 0.790070 0.256420
vt 0.790000 0.230460
vt 0.874860 0.287270
vt 0.754320 0.345620
vt 0.775600 0.282420
vt 0.762670 0.289830
vt 0.754320 0.345620
vt 0.762130 0.380370
vt 0.841960 0.384770
vt 0.780710 0.435970
vt 0.690070 0.345620
vt 0.670330 0.380130
vt 0.664960 0.435970
vt 0.579150 0.346010
vt 0.589560 0.386380
vt 0.637350 0.104640
vt 0.585370 0.076000
vt 0.533720 0.097890
vt 0.502720 0.102620
vt 0.532960 0.162750
vt 0.671650 0.013270
vt 0.625400 0.002090
vt 0.647840 0.002100
vt 0.625400 0.002090
vn 0.0198 -0.9996 0.0193
vn -0.0051 -0.9997 0.0254
vn -0.0084 -0.9994 0.0337
vn -0.0268 -0.9985 0.0485
vn -0.0458 -0.9924 0.1141
vn -0.0359 -0.9928 0.1144
vn -0.0000 -0.9902 0.1398
vn 0.0000 -0.9987 0.0510
vn 0.0326 -0.9945 0.0993
vn -0.7849 0.2256 -0.5772
vn -0.7906 0.1350 -0.5973
vn -0.8804 0.1869 -0.4359
vn -0.9203 0.1729 -0.3508
vn -0.9229 0.3200 0.2140
vn -0.9498 0.2325 0.2096
vn -0.7196 0.4603 0.5199
vn -0.8560 0.1690 0.4885
vn -0.7255 0.1942 0.6602
vn -0.8715 -0.0632 0.4863
vn -0.9146 0.0627 0.3996
vn -0.9050 0.4122 0.1049
vn -0.7098 0.5712 0.4122
vn -0.8417 0.5325 0.0891
vn -0.6856 0.4166 0.5970
vn -0.9324 -0.3234 0.1613
vn -0.5863 -0.4137 0.6965
vn 0.7849 0.2256 -0.5772
vn 0.9157 0.1725 -0.3629
vn 0.7906 0.1350 -0.5973
vn 0.9204 0.1724 -0.3508
vn 0.9054 -0.1230 -0.4065
vn 0.9549 -0.1727 -0.2415
vn 0.9381 -0.2334 -0.2561
vn 0.9714 -0.1006 0.2149
vn 0.9516 0.1202 0.2830
vn 0.8541 -0.1263 0.5045
vn 0.6427 0.4403 0.6270
vn 0.7437 0.1431 0.6531
vn 0.0462 0.4229 0.9050
vn 0.7001 0.1291 0.7023
vn 0.0015 0.1317 0.9913
vn 0.6344 0.3194 0.7040
vn -0.0968 0.2761 0.9562
vn 0.0015 0.7643 0.6448
vn -0.6579 0.3433 0.6703
vn -0.4692 0.7427 0.4778
vn -0.6957 0.6996 0.1629
vn -0.2399 0.9617 0.1322
vn -0.2872 0.9541 -0.0844
vn -0.0281 0.9868 -0.1598
vn -0.4207 0.7907 -0.4447
vn -0.0000 0.6532 -0.7572
vn -0.6330 0.2884 -0.7184
vn 0.0000 0.2730 -0.9620
vn -0.4745 0.1616 -0.8653
vn -0.0000 0.2643 -0.9644
vn 0.0397 0.9916 0.1233
vn -0.0244 -0.9996 0.0114
vn 0.0019 -0.9997 0.0226
vn 0.0079 -0.9995 0.0299
vn 0.0288 -0.9983 0.0504
vn 0.0626 -0.9866 0.1506
vn -0.8585 0.0900 -0.5048
vn -0.9558 0.2202 -0.1950
vn -0.7296 0.6414 -0.2371
vn -0.9383 -0.2349 -0.2538
vn -0.9846 -0.0792 0.1560
vn -0.9550 -0.1826 -0.2338
vn -0.4172 0.8700 -0.2628
vn -0.7989 0.5576 -0.2256
vn 0.6444 0.6984 -0.3116
vn 0.4471 0.8589 -0.2496
vn 0.4635 0.8827 -0.0775
vn 0.4715 0.8819 -0.0064
vn 0.5853 0.6897 0.4263
vn 0.5853 0.6896 0.4264
vn 0.0804 0.8480 0.5238
vn -0.1355 -0.1385 0.9810
vn 0.1684 -0.0745 0.9829
vn 0.4470 -0.0551 0.8928
vn 0.7466 0.0287 0.6647
vn 0.5853 0.6896 0.4263
vn 0.9588 -0.0278 0.2829
vn 0.9652 -0.2541 0.0610
vn 0.9854 -0.0732 -0.1540
vn 0.9524 -0.2906 -0.0924
vn -0.9435 -0.3281 -0.0477
vn -0.3126 -0.9287 0.1997
vn -0.1973 -0.9449 0.2612
vn 0.0437 -0.9680 0.2469
vn -0.0015 -0.9941 0.1085
vn 0.2886 -0.9296 0.2293
vn -0.1521 -0.9561 0.2503
vn 0.8911 -0.4479 0.0721
vn 0.8198 -0.5198 -0.2404
vn 0.9143 -0.3217 -0.2461
vn 0.5803 -0.2962 -0.7586
vn 0.8156 0.2640 -0.5148
vn 0.3939 0.0048 -0.9191
vn 0.6492 0.3956 -0.6496
vn 0.2536 -0.0120 -0.9672
vn 0.3813 0.1866 -0.9054
vn -0.0109 0.1656 -0.9861
vn -0.0143 0.2728 -0.9620
vn -0.4281 0.2528 -0.8677
vn -0.4535 0.1136 -0.8840
vn -0.6255 0.3679 -0.6880
vn -0.8364 0.0588 -0.5449
vn -0.8137 0.4523 -0.3650
vn -0.9052 -0.1286 -0.4051
vn -0.8033 0.1460 -0.5774
vn -0.4184 -0.0477 -0.9070
vn 0.0078 0.1285 -0.9917
vn 0.4046 0.2688 -0.8741
vn 0.1196 -0.0654 -0.9907
vn 0.4806 0.1026 -0.8709
vn 0.4292 -0.1746 -0.8862
vn 0.7400 0.0532 -0.6705
vn 0.8762 0.1355 -0.4625
vn 0.8710 0.3959 -0.2910
vn -0.1480 -0.9752 0.1644
vn -0.0032 -0.9930 0.1177
vn 0.2019 -0.9696 0.1384
vn 0.3818 -0.9051 0.1870
vn 0.0000 -0.9864 0.1647
vn 0.2965 -0.4955 -0.8165
vn 0.0152 -0.4614 -0.8870
vn 0.0364 -0.3947 -0.9181
vn 0.0049 -0.4479 -0.8941
vn 0.0091 -0.3712 -0.9285
vn -0.0380 -0.4435 -0.8955
vn -0.0524 -0.3984 -0.9157
vn -0.4366 -0.2743 -0.8568
vn -0.5592 -0.5229 -0.6433
vn -0.8935 -0.2643 -0.3630
vn -0.7480 -0.5116 -0.4228
vn 0.9506 0.2402 0.1965
vn 0.8536 0.1683 0.4930
vn 0.8646 -0.0671 0.4980
vn -0.7023 0.1494 0.6961
vn -0.9321 0.2463 0.2655
vn 0.7112 0.4794 0.5142
vn 0.8970 0.3700 0.2419
vn 0.9550 0.2076 0.2120
vn 0.7480 0.6376 0.1843
vn 0.4795 0.7423 0.4680
vn 0.2676 0.9546 0.1306
vn 0.9445 0.2456 -0.2181
vn 0.6749 0.7105 -0.1990
vn 0.2556 0.9631 -0.0844
vn 0.4745 0.1616 -0.8653
vn 0.6330 0.2884 -0.7184
vn 0.4207 0.7907 -0.4447
vn 0.8585 0.0900 -0.5048
vn -0.7257 0.4387 -0.5301
vn -0.3470 0.1018 -0.9323
vn -0.2249 -0.1236 -0.9665
vn -0.0541 -0.2302 -0.9716
vn -0.4094 0.1581 -0.8986
vn -0.0000 -0.7761 0.6306
vn -0.0668 -0.7526 0.6551
vn -0.2075 -0.7494 0.6288
vn -0.0000 -0.8205 0.5717
vn 0.2075 -0.7494 0.6288
vn 0.0668 -0.7526 0.6551
vn -0.0000 -0.9302 -0.3670
vn -0.1973 -0.9449 0.2613
usemtl Shape.142
s 1
f 1/1/1 2/2/2 3/3/3
f 2/2/2 4/4/4 3/3/3
f 3/3/3 4/4/4 5/5/5
f 4/4/4 6/6/6 5/5/5
f 5/5/5 6/6/6 7/7/7
f 6/6/6 8/8/8 7/7/7
f 7/7/7 8/8/8 9/9/9
f 10/10/10 11/11/11 12/12/12
f 11/11/11 13/13/13 12/12/12
f 12/12/12 13/13/13 14/14/14
f 13/13/13 15/15/15 14/14/14
f 14/14/14 15/15/15 16/16/16
f 15/15/15 17/17/17 16/16/16
f 16/16/16 17/17/17 18/18/18
f 17/17/17 19/19/19 18/18/18
f 18/18/18 19/19/19 20/20/20
f 19/19/19 21/21/21 20/20/20
f 20/20/20 21/21/21 22/22/22
f 21/21/21 23/23/23 22/22/22
f 22/22/22 23/23/23 24/24/24
f 23/23/23 25/25/25 24/24/24
f 24/24/24 25/25/25 26/26/26
f 2/2/27 1/1/28 27/27/29
f 1/1/28 28/28/30 27/27/29
f 27/27/29 28/28/30 29/29/31
f 28/28/30 30/30/32 29/29/31
f 29/29/31 30/30/32 31/31/33
f 30/30/32 32/32/34 31/31/33
f 31/31/33 32/32/34 33/33/35
f 32/32/34 34/34/36 33/33/35
f 33/33/35 34/34/36 35/35/37
f 34/34/36 36/36/38 35/35/37
f 35/35/37 36/36/38 37/37/39
f 36/36/38 38/38/40 37/37/39
f 37/37/39 38/38/40 39/39/41
f 38/38/40 40/40/42 39/39/41
f 39/39/41 40/40/42 41/41/43
f 40/40/42 42/42/44 41/41/43
f 41/41/43 42/42/44 43/43/45
f 42/42/44 44/44/46 43/43/45
f 43/43/45 44/44/46 45/45/47
f 44/44/46 46/46/48 45/45/47
f 45/45/47 46/46/48 47/47/49
f 46/46/48 48/48/50 47/47/49
f 47/47/49 48/48/50 49/49/51
f 48/48/50 50/50/52 49/49/51
f 49/49/51 50/50/52 51/51/53
f 50/50/52 52/52/54 51/51/53
f 51/51/53 52/52/54 53/53/55
f 52/52/54 7/7/56 53/53/55
f 54/54/57 46/46/48 42/42/44
f 46/46/48 44/44/46 42/42/44
f 10/10/58 12/12/59 55/55/60
f 12/12/59 56/56/61 55/55/60
f 55/55/60 56/56/61 9/9/9
f 56/56/61 53/53/62 9/9/9
f 9/9/9 53/53/62 7/7/7
f 53/53/55 56/56/63 51/51/53
f 56/56/63 57/57/64 51/51/53
f 51/51/53 57/57/64 58/58/65
f 57/57/64 45/45/47 58/58/65
f 58/58/65 45/45/47 47/47/49
f 59/59/66 60/60/67 61/61/68
f 60/60/67 15/15/15 61/61/68
f 61/61/68 15/15/15 13/13/13
f 59/59/69 62/62/70 21/21/21
f 62/62/70 23/23/23 21/21/21
f 63/63/71 31/31/72 64/64/73
f 31/31/72 33/33/74 64/64/73
f 64/64/73 33/33/74 65/65/75
f 33/33/35 35/35/37 65/65/76
f 65/65/76 35/35/37 66/66/77
f 35/35/37 37/37/39 66/66/77
f 66/66/77 37/37/39 24/24/24
f 37/37/39 22/22/22 24/24/24
f 24/24/24 26/26/26 66/66/78
f 26/26/26 67/67/79 66/66/78
f 66/66/78 67/67/79 65/65/80
f 67/67/79 68/68/81 65/65/80
f 65/65/82 68/68/81 64/64/83
f 68/68/81 69/69/84 64/64/83
f 64/64/83 69/69/84 63/63/85
f 69/69/84 70/70/86 63/63/85
f 23/23/23 62/62/70 25/25/25
f 62/62/70 71/71/87 25/25/25
f 25/25/25 71/71/87 72/72/88
f 71/71/87 73/73/89 72/72/88
f 72/72/88 73/73/89 74/74/90
f 73/73/89 75/75/91 74/74/90
f 74/74/90 75/75/91 76/76/92
f 75/75/91 77/77/93 76/76/92
f 76/76/94 77/77/95 78/78/96
f 77/77/95 79/79/97 78/78/96
f 78/78/96 79/79/97 80/80/98
f 79/79/97 81/81/99 80/80/98
f 80/80/98 81/81/99 82/82/100
f 81/81/99 83/83/101 82/82/100
f 82/82/100 83/83/101 84/84/102
f 83/83/101 85/85/103 84/84/102
f 84/84/102 85/85/103 86/86/104
f 85/85/103 87/87/105 86/86/104
f 86/86/104 87/87/105 88/88/106
f 87/87/105 89/89/107 88/88/106
f 88/88/106 89/89/107 90/90/108
f 89/89/107 91/91/109 90/90/108
f 90/90/108 91/91/109 92/92/110
f 92/92/110 11/11/11 90/90/108
f 11/11/11 10/10/10 90/90/108
f 90/90/108 10/10/10 55/55/111
f 90/90/108 9/9/112 88/88/106
f 9/9/112 93/93/113 88/88/106
f 88/88/106 93/93/113 86/86/104
f 93/93/113 94/94/114 86/86/104
f 86/86/104 94/94/114 84/84/102
f 94/94/114 82/82/100 84/84/102
f 9/9/112 8/8/115 93/93/113
f 8/8/115 95/95/116 93/93/113
f 93/93/113 95/95/116 94/94/114
f 95/95/116 82/82/100 94/94/114
f 6/6/117 4/4/118 95/95/116
f 4/4/118 96/96/119 95/95/116
f 95/95/116 96/96/119 82/82/100
f 96/96/119 97/97/120 82/82/100
f 82/82/100 97/97/120 63/63/71
f 2/2/27 27/27/29 96/96/119
f 27/27/29 29/29/31 96/96/119
f 96/96/119 29/29/31 97/97/120
f 26/26/121 72/72/88 98/98/122
f 72/72/88 74/74/90 98/98/122
f 98/98/122 74/74/90 68/68/123
f 74/74/90 76/76/92 68/68/123
f 68/68/123 76/76/92 69/69/124
f 76/76/92 70/70/86 69/69/84
f 68/68/123 67/67/125 98/98/122
f 67/67/125 26/26/121 98/98/122
f 79/79/97 99/99/126 100/100/127
f 99/99/126 101/101/128 100/100/127
f 100/100/127 101/101/128 102/102/129
f 101/101/128 103/103/130 102/102/129
f 102/102/129 103/103/130 104/104/131
f 103/103/130 105/105/132 104/104/131
f 104/104/131 105/105/132 106/106/133
f 105/105/132 107/107/134 106/106/133
f 106/106/133 107/107/134 108/108/135
f 107/107/134 73/73/136 108/108/135
f 108/108/135 73/73/89 71/71/87
f 76/76/92 78/78/96 70/70/86
f 78/78/96 80/80/98 70/70/86
f 70/70/86 80/80/98 63/63/71
f 80/80/98 82/82/100 63/63/71
f 61/61/68 92/92/110 59/59/66
f 92/92/110 91/91/109 59/59/66
f 20/20/20 22/22/22 18/18/18
f 22/22/22 37/37/39 18/18/18
f 18/18/18 37/37/39 39/39/41
f 30/30/32 109/109/137 32/32/34
f 109/109/137 110/110/138 32/32/34
f 32/32/34 110/110/138 111/111/139
f 110/110/138 36/36/38 111/111/139
f 111/111/139 36/36/38 34/34/36
f 61/61/68 13/13/13 92/92/110
f 13/13/13 11/11/11 92/92/110
f 19/19/19 17/17/17 60/60/67
f 17/17/17 15/15/15 60/60/67
f 19/19/19 60/60/67 21/21/21
f 60/60/67 59/59/66 21/21/21
f 16/16/16 18/18/18 14/14/14
f 18/18/18 112/112/140 14/14/14
f 14/14/14 112/112/140 113/113/141
f 112/112/140 43/43/45 113/113/141
f 113/113/141 43/43/45 45/45/47
f 18/18/18 39/39/41 112/112/140
f 39/39/41 41/41/43 112/112/140
f 112/112/140 41/41/43 43/43/45
f 110/110/138 114/114/142 36/36/38
f 114/114/142 115/115/143 36/36/38
f 36/36/38 115/115/143 38/38/40
f 115/115/143 116/116/144 38/38/40
f 38/38/40 116/116/144 40/40/42
f 116/116/144 117/117/145 40/40/42
f 40/40/42 117/117/145 118/118/146
f 117/117/145 119/119/147 118/118/146
f 118/118/146 119/119/147 42/42/44
f 119/119/147 54/54/57 42/42/44
f 115/115/143 114/114/142 109/109/137
f 114/114/142 110/110/138 109/109/137
f 115/115/143 109/109/137 28/28/30
f 109/109/137 30/30/32 28/28/30
f 115/115/143 1/1/28 116/116/144
f 1/1/28 120/120/148 116/116/144
f 116/116/144 120/120/148 117/117/145
f 120/120/148 121/121/149 117/117/145
f 117/117/145 121/121/149 119/119/147
f 121/121/149 122/122/150 119/119/147
f 119/119/147 122/122/150 54/54/57
f 122/122/150 48/48/50 54/54/57
f 5/5/151 52/52/54 123/123/152
f 52/52/54 50/50/52 123/123/152
f 123/123/152 50/50/52 124/124/153
f 50/50/52 48/48/50 124/124/153
f 124/124/153 48/48/50 122/122/150
f 5/5/151 123/123/152 3/3/154
f 123/123/152 120/120/148 3/3/154
f 3/3/154 120/120/148 1/1/28
f 120/120/148 123/123/152 121/121/149
f 123/123/152 124/124/153 121/121/149
f 121/121/149 124/124/153 122/122/150
f 51/51/53 58/58/65 49/49/51
f 58/58/65 47/47/49 49/49/51
f 113/113/141 57/57/64 14/14/14
f 57/57/64 12/12/12 14/14/14
f 91/91/109 125/125/155 62/62/70
f 125/125/155 71/71/87 62/62/70
f 108/108/135 125/125/155 106/106/133
f 125/125/155 126/126/156 106/106/133
f 106/106/133 126/126/156 104/104/131
f 126/126/156 127/127/157 104/104/131
f 104/104/131 127/127/157 102/102/129
f 127/127/157 128/128/158 102/102/129
f 102/102/129 128/128/158 100/100/127
f 128/128/158 83/83/101 100/100/127
f 100/100/127 83/83/101 81/81/99
f 85/85/103 128/128/158 129/129/159
f 128/128/158 127/127/157 129/129/159
f 129/129/159 127/127/157 89/89/107
f 127/127/157 126/126/156 89/89/107
f 89/89/107 126/126/156 125/125/155
f 89/89/107 87/87/105 129/129/159
f 87/87/105 85/85/103 129/129/159
f 77/77/93 130/130/160 99/99/161
f 130/130/160 101/131/162 99/99/161
f 103/132/163 130/130/160 105/133/164
f 130/130/160 107/107/165 105/133/164
f 73/73/89 130/130/166 75/75/91
f 130/130/166 77/77/93 75/75/91
f 46/46/48 54/54/57 48/48/50
f 118/118/146 42/42/44 40/40/42
f 113/113/141 45/45/47 57/57/64
f 1/1/28 115/115/143 28/28/30
f 12/12/12 57/57/64 56/56/63
f 7/7/56 52/52/54 5/5/151
f 95/95/116 8/8/115 6/6/117
f 90/90/108 55/55/111 9/9/112
f 96/96/119 4/4/118 2/2/27
f 32/32/34 111/111/139 34/34/36
f 62/62/70 59/59/69 91/91/109
f 125/125/155 91/91/109 89/89/107
f 71/71/87 125/125/155 108/108/135
f 128/128/158 85/85/103 83/83/101
f 72/72/88 26/26/26 25/25/25
f 100/100/127 81/81/99 79/79/97
f 99/99/126 79/79/97 77/77/95
f 107/107/165 130/130/160 73/73/167
f 101/131/162 130/130/160 103/132/163
f 63/63/71 97/97/120 31/31/72
f 97/97/120 29/29/31 31/31/33
